<svg xmlns="http://www.w3.org/2000/svg" width="760" height="360" viewBox="0 0 760 360">
<rect width="100%" height="100%" fill="#ffffff"/>
<text x="380.0" y="28" text-anchor="middle" font-family="Arial, sans-serif" font-size="20" font-weight="700" fill="#111827">Rejected client loans by reason</text>
<line x1="72" y1="274" x2="736" y2="274" stroke="#374151" stroke-width="1"/>
<line x1="72" y1="50" x2="72" y2="274" stroke="#374151" stroke-width="1"/>
<line x1="72" y1="274.0" x2="736" y2="274.0" stroke="#e5e7eb" stroke-width="1"/>
<text x="64" y="278.0" text-anchor="end" font-family="Arial, sans-serif" font-size="10" fill="#4b5563">0</text>
<line x1="72" y1="218.0" x2="736" y2="218.0" stroke="#e5e7eb" stroke-width="1"/>
<text x="64" y="222.0" text-anchor="end" font-family="Arial, sans-serif" font-size="10" fill="#4b5563">397.5</text>
<line x1="72" y1="162.0" x2="736" y2="162.0" stroke="#e5e7eb" stroke-width="1"/>
<text x="64" y="166.0" text-anchor="end" font-family="Arial, sans-serif" font-size="10" fill="#4b5563">795</text>
<line x1="72" y1="106.0" x2="736" y2="106.0" stroke="#e5e7eb" stroke-width="1"/>
<text x="64" y="110.0" text-anchor="end" font-family="Arial, sans-serif" font-size="10" fill="#4b5563">1192.5</text>
<line x1="72" y1="50.0" x2="736" y2="50.0" stroke="#e5e7eb" stroke-width="1"/>
<text x="64" y="54.0" text-anchor="end" font-family="Arial, sans-serif" font-size="10" fill="#4b5563">1590</text>
<rect x="72.0" y="50.0" width="152.5" height="224.0" fill="#2563eb"/>
<text x="148.25" y="44.0" text-anchor="middle" font-family="Arial, sans-serif" font-size="11" font-weight="700" fill="#111827">1590</text>
<text x="148.25" y="298" text-anchor="middle" font-family="Arial, sans-serif" font-size="10" fill="#374151">credit risk / negative EV</text>
<rect x="242.5" y="228.49559748427674" width="152.5" height="45.50440251572327" fill="#2563eb"/>
<text x="318.75" y="222.49559748427674" text-anchor="middle" font-family="Arial, sans-serif" font-size="11" font-weight="700" fill="#111827">323</text>
<text x="318.75" y="298" text-anchor="middle" font-family="Arial, sans-serif" font-size="10" fill="#374151">insufficient own liquidity</text>
<rect x="413.0" y="51.831446540880506" width="152.5" height="222.1685534591195" fill="#2563eb"/>
<text x="489.25" y="45.831446540880506" text-anchor="middle" font-family="Arial, sans-serif" font-size="11" font-weight="700" fill="#111827">1577</text>
<text x="489.25" y="298" text-anchor="middle" font-family="Arial, sans-serif" font-size="10" fill="#374151">after interbank</text>
<rect x="583.5" y="93.5320754716981" width="152.5" height="180.4679245283019" fill="#2563eb"/>
<text x="659.75" y="87.5320754716981" text-anchor="middle" font-family="Arial, sans-serif" font-size="11" font-weight="700" fill="#111827">1281</text>
<text x="659.75" y="298" text-anchor="middle" font-family="Arial, sans-serif" font-size="10" fill="#374151">reserve constraint</text>
</svg>